<svg id="SvgjsSvg1162" width="256" height="256" xmlns="http://www.w3.org/2000/svg" version="1.1" xmlns:xlink="http://www.w3.org/1999/xlink" xmlns:svgjs="http://svgjs.com/svgjs"><defs id="SvgjsDefs1163"></defs><g id="SvgjsG1164"><svg xmlns="http://www.w3.org/2000/svg" enable-background="new 0 0 512 512" viewBox="0 0 512 512" width="256" height="256"><rect width="34.133" height="34.133" x="409.6" y="409.6" fill="#424280" class="color424280 svgShape"></rect><rect width="34.133" height="34.133" x="375.467" y="409.6" fill="#424280" class="color424280 svgShape"></rect><rect width="34.133" height="34.133" x="341.333" y="409.6" fill="#80d5ff" class="color80d5ff svgShape"></rect><rect width="34.133" height="34.133" x="307.2" y="409.6" fill="#80d5ff" class="color80d5ff svgShape"></rect><rect width="34.133" height="34.133" x="273.067" y="409.6" fill="#80d5ff" class="color80d5ff svgShape"></rect><rect width="34.133" height="34.133" x="238.933" y="409.6" fill="#424280" class="color424280 svgShape"></rect><rect width="34.133" height="34.133" x="204.8" y="409.6" fill="#80d5ff" class="color80d5ff svgShape"></rect><rect width="34.133" height="34.133" x="170.667" y="409.6" fill="#80d5ff" class="color80d5ff svgShape"></rect><rect width="34.133" height="34.133" x="136.533" y="409.6" fill="#80d5ff" class="color80d5ff svgShape"></rect><rect width="34.133" height="34.133" x="102.4" y="409.6" fill="#424280" class="color424280 svgShape"></rect><rect width="34.133" height="34.133" x="68.267" y="409.6" fill="#424280" class="color424280 svgShape"></rect><rect width="34.133" height="34.133" x="409.6" y="375.467" fill="#80d5ff" class="color80d5ff svgShape"></rect><rect width="34.133" height="34.133" x="375.467" y="375.467" fill="#80d5ff" class="color80d5ff svgShape"></rect><rect width="34.133" height="34.133" x="341.333" y="375.467" fill="#424280" class="color424280 svgShape"></rect><rect width="34.133" height="34.133" x="307.2" y="375.467" fill="#80d5ff" class="color80d5ff svgShape"></rect><rect width="34.133" height="34.133" x="273.067" y="375.467" fill="#80d5ff" class="color80d5ff svgShape"></rect><rect width="34.133" height="34.133" x="238.933" y="375.467" fill="#424280" class="color424280 svgShape"></rect><rect width="34.133" height="34.133" x="204.8" y="375.467" fill="#80d5ff" class="color80d5ff svgShape"></rect><rect width="34.133" height="34.133" x="170.667" y="375.467" fill="#adefff" class="coloradefff svgShape"></rect><rect width="34.133" height="34.133" x="136.533" y="375.467" fill="#424280" class="color424280 svgShape"></rect><rect width="34.133" height="34.133" x="102.4" y="375.467" fill="#adefff" class="coloradefff svgShape"></rect><rect width="34.133" height="34.133" x="68.267" y="375.467" fill="#adefff" class="coloradefff svgShape"></rect><rect width="34.133" height="34.133" x="34.133" y="375.467" fill="#424280" class="color424280 svgShape"></rect><rect width="34.133" height="34.133" x="409.6" y="341.333" fill="#80d5ff" class="color80d5ff svgShape"></rect><rect width="34.133" height="34.133" x="375.467" y="341.333" fill="#80d5ff" class="color80d5ff svgShape"></rect><rect width="34.133" height="34.133" x="341.333" y="341.333" fill="#80d5ff" class="color80d5ff svgShape"></rect><rect width="34.133" height="34.133" x="307.2" y="341.333" fill="#424280" class="color424280 svgShape"></rect><rect width="34.133" height="34.133" x="273.067" y="341.333" fill="#424280" class="color424280 svgShape"></rect><rect width="34.133" height="34.133" x="238.933" y="341.333" fill="#424280" class="color424280 svgShape"></rect><rect width="34.133" height="34.133" x="204.8" y="341.333" fill="#424280" class="color424280 svgShape"></rect><rect width="34.133" height="34.133" x="170.667" y="341.333" fill="#424280" class="color424280 svgShape"></rect><rect width="34.133" height="34.133" x="136.533" y="341.333" fill="#adefff" class="coloradefff svgShape"></rect><rect width="34.133" height="34.133" x="102.4" y="341.333" fill="#adefff" class="coloradefff svgShape"></rect><rect width="34.133" height="34.133" x="68.267" y="341.333" fill="#adefff" class="coloradefff svgShape"></rect><rect width="34.133" height="34.133" x="34.133" y="341.333" fill="#424280" class="color424280 svgShape"></rect><rect width="34.133" height="34.133" x="409.6" y="307.2" fill="#80d5ff" class="color80d5ff svgShape"></rect><rect width="34.133" height="34.133" x="375.467" y="307.2" fill="#80d5ff" class="color80d5ff svgShape"></rect><rect width="34.133" height="34.133" x="341.333" y="307.2" fill="#80d5ff" class="color80d5ff svgShape"></rect><rect width="34.133" height="34.133" x="307.2" y="307.2" fill="#80d5ff" class="color80d5ff svgShape"></rect><rect width="34.133" height="34.133" x="273.067" y="307.2" fill="#adefff" class="coloradefff svgShape"></rect><rect width="34.133" height="34.133" x="238.933" y="307.2" fill="#424280" class="color424280 svgShape"></rect><rect width="34.133" height="34.133" x="204.8" y="307.2" fill="#adefff" class="coloradefff svgShape"></rect><rect width="34.133" height="34.133" x="170.667" y="307.2" fill="#adefff" class="coloradefff svgShape"></rect><rect width="34.133" height="34.133" x="136.533" y="307.2" fill="#adefff" class="coloradefff svgShape"></rect><rect width="34.133" height="34.133" x="102.4" y="307.2" fill="#adefff" class="coloradefff svgShape"></rect><rect width="34.133" height="34.133" x="68.267" y="307.2" fill="#adefff" class="coloradefff svgShape"></rect><rect width="34.133" height="34.133" x="34.133" y="307.2" fill="#adefff" class="coloradefff svgShape"></rect><rect width="34.133" height="34.133" y="307.2" fill="#424280" class="color424280 svgShape"></rect><rect width="34.133" height="34.133" x="409.6" y="273.067" fill="#80d5ff" class="color80d5ff svgShape"></rect><rect width="34.133" height="34.133" x="375.467" y="273.067" fill="#80d5ff" class="color80d5ff svgShape"></rect><rect width="34.133" height="34.133" x="341.333" y="273.067" fill="#80d5ff" class="color80d5ff svgShape"></rect><rect width="34.133" height="34.133" x="307.2" y="273.067" fill="#adefff" class="coloradefff svgShape"></rect><rect width="34.133" height="34.133" x="273.067" y="273.067" fill="#adefff" class="coloradefff svgShape"></rect><rect width="34.133" height="34.133" x="238.933" y="273.067" fill="#424280" class="color424280 svgShape"></rect><rect width="34.133" height="34.133" x="204.8" y="273.067" fill="#adefff" class="coloradefff svgShape"></rect><rect width="34.133" height="34.133" x="170.667" y="273.067" fill="#adefff" class="coloradefff svgShape"></rect><rect width="34.133" height="34.133" x="136.533" y="273.067" fill="#adefff" class="coloradefff svgShape"></rect><rect width="34.133" height="34.133" x="102.4" y="273.067" fill="#adefff" class="coloradefff svgShape"></rect><rect width="34.133" height="34.133" x="68.267" y="273.067" fill="#adefff" class="coloradefff svgShape"></rect><rect width="34.133" height="34.133" x="34.133" y="273.067" fill="#adefff" class="coloradefff svgShape"></rect><rect width="34.133" height="34.133" y="273.067" fill="#424280" class="color424280 svgShape"></rect><rect width="34.133" height="34.133" x="409.6" y="238.933" fill="#424280" class="color424280 svgShape"></rect><rect width="34.133" height="34.133" x="375.467" y="238.933" fill="#424280" class="color424280 svgShape"></rect><rect width="34.133" height="34.133" x="341.333" y="238.933" fill="#424280" class="color424280 svgShape"></rect><rect width="34.133" height="34.133" x="307.2" y="238.933" fill="#424280" class="color424280 svgShape"></rect><rect width="34.133" height="34.133" x="273.067" y="238.933" fill="#424280" class="color424280 svgShape"></rect><rect width="34.133" height="34.133" x="238.933" y="238.933" fill="#424280" class="color424280 svgShape"></rect><rect width="34.133" height="34.133" x="204.8" y="238.933" fill="#424280" class="color424280 svgShape"></rect><rect width="34.133" height="34.133" x="170.667" y="238.933" fill="#424280" class="color424280 svgShape"></rect><rect width="34.133" height="34.133" x="136.533" y="238.933" fill="#424280" class="color424280 svgShape"></rect><rect width="34.133" height="34.133" x="102.4" y="238.933" fill="#424280" class="color424280 svgShape"></rect><rect width="34.133" height="34.133" x="68.267" y="238.933" fill="#424280" class="color424280 svgShape"></rect><rect width="34.133" height="34.133" x="34.133" y="238.933" fill="#424280" class="color424280 svgShape"></rect><rect width="34.133" height="34.133" y="238.933" fill="#424280" class="color424280 svgShape"></rect><rect width="34.133" height="34.133" x="409.6" y="204.8" fill="#80d5ff" class="color80d5ff svgShape"></rect><rect width="34.133" height="34.133" x="375.467" y="204.8" fill="#adefff" class="coloradefff svgShape"></rect><rect width="34.133" height="34.133" x="341.333" y="204.8" fill="#adefff" class="coloradefff svgShape"></rect><rect width="34.133" height="34.133" x="307.2" y="204.8" fill="#adefff" class="coloradefff svgShape"></rect><rect width="34.133" height="34.133" x="273.067" y="204.8" fill="#adefff" class="coloradefff svgShape"></rect><rect width="34.133" height="34.133" x="238.933" y="204.8" fill="#424280" class="color424280 svgShape"></rect><rect width="34.133" height="34.133" x="204.8" y="204.8" fill="#adefff" class="coloradefff svgShape"></rect><rect width="34.133" height="34.133" x="170.667" y="204.8" fill="#adefff" class="coloradefff svgShape"></rect><rect width="34.133" height="34.133" x="136.533" y="204.8" fill="#adefff" class="coloradefff svgShape"></rect><rect width="34.133" height="34.133" x="102.4" y="204.8" fill="#adefff" class="coloradefff svgShape"></rect><rect width="34.133" height="34.133" x="68.267" y="204.8" fill="#adefff" class="coloradefff svgShape"></rect><rect width="34.133" height="34.133" x="34.133" y="204.8" fill="#adefff" class="coloradefff svgShape"></rect><rect width="34.133" height="34.133" y="204.8" fill="#424280" class="color424280 svgShape"></rect><rect width="34.133" height="34.133" x="409.6" y="170.667" fill="#80d5ff" class="color80d5ff svgShape"></rect><rect width="34.133" height="34.133" x="375.467" y="170.667" fill="#adefff" class="coloradefff svgShape"></rect><rect width="34.133" height="34.133" x="341.333" y="170.667" fill="#adefff" class="coloradefff svgShape"></rect><rect width="34.133" height="34.133" x="307.2" y="170.667" fill="#adefff" class="coloradefff svgShape"></rect><rect width="34.133" height="34.133" x="273.067" y="170.667" fill="#adefff" class="coloradefff svgShape"></rect><rect width="34.133" height="34.133" x="238.933" y="170.667" fill="#424280" class="color424280 svgShape"></rect><rect width="34.133" height="34.133" x="204.8" y="170.667" fill="#adefff" class="coloradefff svgShape"></rect><rect width="34.133" height="34.133" x="170.667" y="170.667" fill="#adefff" class="coloradefff svgShape"></rect><rect width="34.133" height="34.133" x="136.533" y="170.667" fill="#f2fdff" class="colorf2fdff svgShape"></rect><rect width="34.133" height="34.133" x="102.4" y="170.667" fill="#adefff" class="coloradefff svgShape"></rect><rect width="34.133" height="34.133" x="68.267" y="170.667" fill="#adefff" class="coloradefff svgShape"></rect><rect width="34.133" height="34.133" x="34.133" y="170.667" fill="#adefff" class="coloradefff svgShape"></rect><rect width="34.133" height="34.133" y="170.667" fill="#424280" class="color424280 svgShape"></rect><rect width="34.133" height="34.133" x="409.6" y="136.533" fill="#adefff" class="coloradefff svgShape"></rect><rect width="34.133" height="34.133" x="375.467" y="136.533" fill="#adefff" class="coloradefff svgShape"></rect><rect width="34.133" height="34.133" x="341.333" y="136.533" fill="#adefff" class="coloradefff svgShape"></rect><rect width="34.133" height="34.133" x="307.2" y="136.533" fill="#424280" class="color424280 svgShape"></rect><rect width="34.133" height="34.133" x="273.067" y="136.533" fill="#424280" class="color424280 svgShape"></rect><rect width="34.133" height="34.133" x="238.933" y="136.533" fill="#424280" class="color424280 svgShape"></rect><rect width="34.133" height="34.133" x="204.8" y="136.533" fill="#424280" class="color424280 svgShape"></rect><rect width="34.133" height="34.133" x="170.667" y="136.533" fill="#424280" class="color424280 svgShape"></rect><rect width="34.133" height="34.133" x="136.533" y="136.533" fill="#f2fdff" class="colorf2fdff svgShape"></rect><rect width="34.133" height="34.133" x="102.4" y="136.533" fill="#adefff" class="coloradefff svgShape"></rect><rect width="34.133" height="34.133" x="68.267" y="136.533" fill="#adefff" class="coloradefff svgShape"></rect><rect width="34.133" height="34.133" x="34.133" y="136.533" fill="#424280" class="color424280 svgShape"></rect><rect width="34.133" height="34.133" x="409.6" y="102.4" fill="#adefff" class="coloradefff svgShape"></rect><rect width="34.133" height="34.133" x="375.467" y="102.4" fill="#adefff" class="coloradefff svgShape"></rect><rect width="34.133" height="34.133" x="341.333" y="102.4" fill="#424280" class="color424280 svgShape"></rect><rect width="34.133" height="34.133" x="307.2" y="102.4" fill="#adefff" class="coloradefff svgShape"></rect><rect width="34.133" height="34.133" x="273.067" y="102.4" fill="#adefff" class="coloradefff svgShape"></rect><rect width="34.133" height="34.133" x="238.933" y="102.4" fill="#424280" class="color424280 svgShape"></rect><rect width="34.133" height="34.133" x="204.8" y="102.4" fill="#adefff" class="coloradefff svgShape"></rect><rect width="34.133" height="34.133" x="170.667" y="102.4" fill="#adefff" class="coloradefff svgShape"></rect><rect width="34.133" height="34.133" x="136.533" y="102.4" fill="#424280" class="color424280 svgShape"></rect><rect width="34.133" height="34.133" x="102.4" y="102.4" fill="#adefff" class="coloradefff svgShape"></rect><rect width="34.133" height="34.133" x="68.267" y="102.4" fill="#adefff" class="coloradefff svgShape"></rect><rect width="34.133" height="34.133" x="34.133" y="102.4" fill="#424280" class="color424280 svgShape"></rect><rect width="34.133" height="34.133" x="409.6" y="68.267" fill="#424280" class="color424280 svgShape"></rect><rect width="34.133" height="34.133" x="375.467" y="68.267" fill="#424280" class="color424280 svgShape"></rect><rect width="34.133" height="34.133" x="341.333" y="68.267" fill="#adefff" class="coloradefff svgShape"></rect><rect width="34.133" height="34.133" x="307.2" y="68.267" fill="#adefff" class="coloradefff svgShape"></rect><rect width="34.133" height="34.133" x="273.067" y="68.267" fill="#adefff" class="coloradefff svgShape"></rect><rect width="34.133" height="34.133" x="238.933" y="68.267" fill="#424280" class="color424280 svgShape"></rect><rect width="34.133" height="34.133" x="204.8" y="68.267" fill="#adefff" class="coloradefff svgShape"></rect><rect width="34.133" height="34.133" x="170.667" y="68.267" fill="#adefff" class="coloradefff svgShape"></rect><rect width="34.133" height="34.133" x="136.533" y="68.267" fill="#f2fdff" class="colorf2fdff svgShape"></rect><rect width="34.133" height="34.133" x="102.4" y="68.267" fill="#424280" class="color424280 svgShape"></rect><rect width="34.133" height="34.133" x="68.267" y="68.267" fill="#424280" class="color424280 svgShape"></rect><rect width="34.133" height="34.133" x="375.467" y="34.133" fill="#424280" class="color424280 svgShape"></rect><rect width="34.133" height="34.133" x="341.333" y="34.133" fill="#424280" class="color424280 svgShape"></rect><rect width="34.133" height="34.133" x="307.2" y="34.133" fill="#adefff" class="coloradefff svgShape"></rect><rect width="34.133" height="34.133" x="273.067" y="34.133" fill="#adefff" class="coloradefff svgShape"></rect><rect width="34.133" height="34.133" x="238.933" y="34.133" fill="#424280" class="color424280 svgShape"></rect><rect width="34.133" height="34.133" x="204.8" y="34.133" fill="#adefff" class="coloradefff svgShape"></rect><rect width="34.133" height="34.133" x="170.667" y="34.133" fill="#adefff" class="coloradefff svgShape"></rect><rect width="34.133" height="34.133" x="136.533" y="34.133" fill="#424280" class="color424280 svgShape"></rect><rect width="34.133" height="34.133" x="102.4" y="34.133" fill="#424280" class="color424280 svgShape"></rect><rect width="34.133" height="34.133" x="443.733" y="375.467" fill="#424280" class="color424280 svgShape"></rect><rect width="34.133" height="34.133" x="307.2" y="477.867" fill="#424280" class="color424280 svgShape"></rect><rect width="34.133" height="34.133" x="273.067" y="477.867" fill="#424280" class="color424280 svgShape"></rect><rect width="34.133" height="34.133" x="238.933" y="477.867" fill="#424280" class="color424280 svgShape"></rect><rect width="34.133" height="34.133" x="204.8" y="477.867" fill="#424280" class="color424280 svgShape"></rect><rect width="34.133" height="34.133" x="170.667" y="477.867" fill="#424280" class="color424280 svgShape"></rect><rect width="34.133" height="34.133" x="375.467" y="443.733" fill="#424280" class="color424280 svgShape"></rect><rect width="34.133" height="34.133" x="341.333" y="443.733" fill="#424280" class="color424280 svgShape"></rect><rect width="34.133" height="34.133" x="307.2" y="443.733" fill="#80d5ff" class="color80d5ff svgShape"></rect><rect width="34.133" height="34.133" x="273.067" y="443.733" fill="#80d5ff" class="color80d5ff svgShape"></rect><rect width="34.133" height="34.133" x="238.933" y="443.733" fill="#424280" class="color424280 svgShape"></rect><rect width="34.133" height="34.133" x="204.8" y="443.733" fill="#80d5ff" class="color80d5ff svgShape"></rect><rect width="34.133" height="34.133" x="170.667" y="443.733" fill="#80d5ff" class="color80d5ff svgShape"></rect><rect width="34.133" height="34.133" x="136.533" y="443.733" fill="#424280" class="color424280 svgShape"></rect><rect width="34.133" height="34.133" x="102.4" y="443.733" fill="#424280" class="color424280 svgShape"></rect><rect width="34.133" height="34.133" x="443.733" y="341.333" fill="#424280" class="color424280 svgShape"></rect><rect width="34.133" height="34.133" x="477.867" y="307.2" fill="#424280" class="color424280 svgShape"></rect><rect width="34.133" height="34.133" x="443.733" y="307.2" fill="#80d5ff" class="color80d5ff svgShape"></rect><rect width="34.133" height="34.133" x="477.867" y="273.067" fill="#424280" class="color424280 svgShape"></rect><rect width="34.133" height="34.133" x="443.733" y="273.067" fill="#80d5ff" class="color80d5ff svgShape"></rect><rect width="34.133" height="34.133" x="477.867" y="238.933" fill="#424280" class="color424280 svgShape"></rect><rect width="34.133" height="34.133" x="443.733" y="238.933" fill="#424280" class="color424280 svgShape"></rect><rect width="34.133" height="34.133" x="477.867" y="204.8" fill="#424280" class="color424280 svgShape"></rect><rect width="34.133" height="34.133" x="443.733" y="204.8" fill="#80d5ff" class="color80d5ff svgShape"></rect><rect width="34.133" height="34.133" x="477.867" y="170.667" fill="#424280" class="color424280 svgShape"></rect><rect width="34.133" height="34.133" x="443.733" y="170.667" fill="#80d5ff" class="color80d5ff svgShape"></rect><rect width="34.133" height="34.133" x="443.733" y="136.533" fill="#424280" class="color424280 svgShape"></rect><rect width="34.133" height="34.133" x="443.733" y="102.4" fill="#424280" class="color424280 svgShape"></rect><rect width="34.133" height="34.133" x="307.2" fill="#424280" class="color424280 svgShape"></rect><rect width="34.133" height="34.133" x="273.067" fill="#424280" class="color424280 svgShape"></rect><rect width="34.133" height="34.133" x="238.933" fill="#424280" class="color424280 svgShape"></rect><rect width="34.133" height="34.133" x="204.8" fill="#424280" class="color424280 svgShape"></rect><rect width="34.133" height="34.133" x="170.667" fill="#424280" class="color424280 svgShape"></rect></svg></g></svg>