<svg id="SvgjsSvg1080" width="256" height="256" xmlns="http://www.w3.org/2000/svg" version="1.1" xmlns:xlink="http://www.w3.org/1999/xlink" xmlns:svgjs="http://svgjs.com/svgjs"><defs id="SvgjsDefs1081"></defs><g id="SvgjsG1082"><svg xmlns="http://www.w3.org/2000/svg" data-name="01 Home" viewBox="0 0 96 96" width="256" height="256"><defs><linearGradient id="a" x1="35.02" x2="60.98" y1="25.16" y2="51.13" gradientUnits="userSpaceOnUse"><stop offset="0" stop-color="#fdaf87" class="stopColore88f8d svgShape"></stop><stop offset=".22" stop-color="#e5aa8c" class="stopColore58d8c svgShape"></stop><stop offset=".39" stop-color="#dba387" class="stopColordb878a svgShape"></stop><stop offset=".55" stop-color="#ca977d" class="stopColorca7d87 svgShape"></stop><stop offset=".7" stop-color="#b2866f" class="stopColorb26f82 svgShape"></stop><stop offset=".84" stop-color="#936f5c" class="stopColor935c7b svgShape"></stop><stop offset=".98" stop-color="#745646" class="stopColor6e4674 svgShape"></stop><stop offset="1" stop-color="#725242" class="stopColor674272 svgShape"></stop></linearGradient><linearGradient id="b" x1="27.24" x2="68.76" y1="17.39" y2="58.91" gradientUnits="userSpaceOnUse"><stop offset="0" stop-color="#666666" class="stopColor666 svgShape"></stop><stop offset="1" stop-color="#333333" class="stopColor333 svgShape"></stop></linearGradient></defs><path fill="url(#a)" d="M28.8 44.92a9.57 9.57 0 1 1 13.54-13.54L48 37l5.66-5.65A9.57 9.57 0 0 1 67.2 44.92L48 64.11Z"></path><path fill="url(#b)" d="m48 79.67-27-27a20.57 20.57 0 0 1 27-30.92 20.57 20.57 0 0 1 27 30.94ZM25.27 27.84a14.56 14.56 0 0 0 0 20.61L48 71.18l22.73-22.73a14.57 14.57 0 0 0-20.61-20.61L48 30l-2.12-2.12a14.58 14.58 0 0 0-20.61-.04Z"></path></svg></g></svg>