<svg id="SvgjsSvg1119" width="256" height="256" xmlns="http://www.w3.org/2000/svg" version="1.1" xmlns:xlink="http://www.w3.org/1999/xlink" xmlns:svgjs="http://svgjs.com/svgjs"><defs id="SvgjsDefs1120"></defs><g id="SvgjsG1121"><svg xmlns="http://www.w3.org/2000/svg" data-name="01 Home" viewBox="0 0 96 96" width="256" height="256"><defs><linearGradient id="a" x1="39.05" x2="56.95" y1="42.99" y2="60.88" gradientUnits="userSpaceOnUse"><stop offset="0" stop-color="#ffa475" class="stopColorffda75 svgShape"></stop><stop offset=".28" stop-color="#ffa273" class="stopColorffd773 svgShape"></stop><stop offset=".51" stop-color="#fd9e6e" class="stopColorfdcd6e svgShape"></stop><stop offset=".71" stop-color="#fdaf87" class="stopColorfbbc66 svgShape"></stop><stop offset=".91" stop-color="#f88f59" class="stopColorf8a459 svgShape"></stop><stop offset="1" stop-color="#f68a52" class="stopColorf69652 svgShape"></stop></linearGradient><linearGradient id="b" x1="25.59" x2="70.41" y1="30.28" y2="75.11" gradientUnits="userSpaceOnUse"><stop offset="0" stop-color="#666666" class="stopColor666 svgShape"></stop><stop offset="1" stop-color="#333333" class="stopColor333 svgShape"></stop></linearGradient></defs><path fill="url(#a)" d="m48 57.75-7.92 4.16 1.52-8.82-6.41-6.24 8.85-1.29L48 37.55l3.96 8.01 8.85 1.29-6.41 6.24 1.52 8.82L48 57.75z"></path><path fill="url(#b)" d="M65.14 79.19 48 70.17l-17.14 9L26.5 76l3.28-19.09-13.87-13.5 1.66-5.11 19.17-2.79 8.57-17.37h5.38l8.57 17.37 19.17 2.79 1.66 5.11-13.87 13.52L69.5 76ZM48 63.4l14.56 7.65-2.78-16.21 11.77-11.48L55.28 41 48 26.25 40.72 41l-16.27 2.36 11.77 11.48-2.78 16.21Z"></path></svg></g></svg>