<svg id="SvgjsSvg1001" width="256" height="256" xmlns="http://www.w3.org/2000/svg" version="1.1" xmlns:xlink="http://www.w3.org/1999/xlink" xmlns:svgjs="http://svgjs.com/svgjs"><defs id="SvgjsDefs1002"></defs><g id="SvgjsG1008"><svg xmlns="http://www.w3.org/2000/svg" viewBox="0 0 96 96" width="256" height="256"><path fill="#c72e4c" d="M34,57.4H12.32a3.86,3.86,0,0,1,0-7.71H34a3.86,3.86,0,1,1,0,7.71Z" class="colorc72e4c svgShape"></path><path fill="#ef476f" d="M34,57.4H21.12a3.86,3.86,0,0,1,0-7.71H34a3.86,3.86,0,1,1,0,7.71Z" class="coloref476f svgShape"></path><path fill="#c72e4c" d="M31.64,53.55a3.85,3.85,0,0,0,3.85,3.85h21.7a3.86,3.86,0,0,0,0-7.71H35.49A3.86,3.86,0,0,0,31.64,53.55Z" class="colorc72e4c svgShape"></path><path fill="#ef476f" d="M38.58,53.55a3.85,3.85,0,0,0,3.85,3.85H57.19a3.86,3.86,0,0,0,0-7.71H42.43A3.85,3.85,0,0,0,38.58,53.55Z" class="coloref476f svgShape"></path><path fill="#ff97a1" d="M55.69,55.4a1.86,1.86,0,0,0,0-3.71H45.77a1.86,1.86,0,1,0,0,3.71Z" class="colorff97a1 svgShape"></path><path fill="#ef476f" d="M84.54,57.4H62.84a3.86,3.86,0,0,1,0-7.71h21.7a3.86,3.86,0,0,1,0,7.71Z" class="coloref476f svgShape"></path><path fill="#a42e33" d="M86.3,71.28H9.7a4.29,4.29,0,0,1,0-8.57H86.3a4.29,4.29,0,0,1,0,8.57Z" class="colora42e33 svgShape"></path><path fill="#d1474c" d="M51.67 67.23l.5.5a2.08 2.08 0 01-1.48 3.55H9.7A4.28 4.28 0 015.42 67c0-1.82 1.46-2.55 3.08-1.81a5.56 5.56 0 002.34.51H48A5.19 5.19 0 0151.67 67.23zM86.3 71.28H78.53a1.69 1.69 0 01-1.2-2.89L79 66.7a3.41 3.41 0 012.4-1h3.74a5.71 5.71 0 004-1.67l.11-.12A4.29 4.29 0 0186.3 71.28z" class="colord1474c svgShape"></path><path fill="#06d6a0" d="M10.16,50c2.19.82,2.83,2.87,6,2.87,4,0,4-3.21,8-3.21s4,3.21,8,3.21,4-3.21,8-3.21,4,3.21,8,3.21,4-3.21,8-3.21,4,3.21,8,3.21,4-3.21,8-3.21,4,3.21,8,3.21c3.2,0,3.84-2,6-2.87C89.69,48.79,88.63,44,85.24,44H11.32A3.15,3.15,0,0,0,10.16,50Z" class="color06d6a0 svgShape"></path><path fill="#56ffcd" d="M75.26,44h10a3.15,3.15,0,0,1,3.15,3.15v.19a3,3,0,0,1-2,2.74c-2.18.82-2.82,2.87-6,2.87s-3.85-2-6-2.87a2.94,2.94,0,0,1-2-2.72v-.49A2.87,2.87,0,0,1,75.26,44Z" class="color56ffcd svgShape"></path><path fill="#06959b" d="M8.17,47.1v.19a3,3,0,0,0,2,2.74c2.19.82,2.83,2.87,6,2.87,4,0,4-3.21,8-3.21s4,3.21,8,3.21c3.17,0,3.84-2,6-2.84a2.93,2.93,0,0,0,1.92-2.7V46.8A2.85,2.85,0,0,0,37.29,44h-26A3.15,3.15,0,0,0,8.17,47.1ZM26.41,47H38.09a9.39,9.39,0,0,0-3.7,2,2.87,2.87,0,0,1-4.27,0A9.37,9.37,0,0,0,26.41,47Zm-4.36,0a9.37,9.37,0,0,0-3.71,2,2.89,2.89,0,0,1-4.28,0,11,11,0,0,0-2.89-1.77C11.17,46.84,10.35,47,22.05,47Z" class="color06959b svgShape"></path><path fill="#06d6a0" d="M16.2 49.9A2.84 2.84 0 0018.34 49a9.37 9.37 0 013.71-2c-11.86 0-10.88-.1-10.88.23C14.05 48.32 14.33 49.9 16.2 49.9zM32.26 49.9A2.83 2.83 0 0034.39 49a9.39 9.39 0 013.7-2H26.41a9.37 9.37 0 013.71 2A2.84 2.84 0 0032.26 49.9z" class="color06d6a0 svgShape"></path><path fill="#06959b" d="M48.3 49.9A2.83 2.83 0 0050.43 49a9.37 9.37 0 013.71-2H42.46a9.32 9.32 0 013.7 2A2.85 2.85 0 0048.3 49.9zM64.34 49.9A2.87 2.87 0 0066.48 49a9.25 9.25 0 013.7-2H58.5a9.25 9.25 0 013.7 2A2.85 2.85 0 0064.34 49.9z" class="color06959b svgShape"></path><path fill="#06d6a0" d="M80.38,49.9A2.86,2.86,0,0,0,82.51,49a9.63,9.63,0,0,1,2.84-1.74h0c0-.38.88-.26-10.85-.26a9.25,9.25,0,0,1,3.7,2A2.85,2.85,0,0,0,80.38,49.9Z" class="color06d6a0 svgShape"></path><path fill="#f8ad9d" d="M5.42,31.17A12.77,12.77,0,0,0,18.2,44H77.8A12.78,12.78,0,0,0,90.58,31.17,30.17,30.17,0,0,0,60.41,1H35.59A30.17,30.17,0,0,0,5.42,31.17Z" class="colorf8ad9d svgShape"></path><path fill="#f08080" d="M5.42,31.17A12.78,12.78,0,0,0,12,42.32a14,14,0,0,0,2.17,1c3,.94.08.67,63.67.67A12.75,12.75,0,0,0,86,41H26.15a10.26,10.26,0,0,1-6.37-2.22,1.89,1.89,0,0,1-1.45.66,1.94,1.94,0,0,1-1-3.58,9.47,9.47,0,0,1-1.23-4.69,29.68,29.68,0,0,1,5.48-17.33,2.38,2.38,0,0,1,3-3.66A30.06,30.06,0,0,1,46.24,1H35.59A30.16,30.16,0,0,0,5.42,31.17Z" class="colorf08080 svgShape"></path><path fill="#ffdab9" d="M35.25,31.17A7.79,7.79,0,0,0,43,39H77.8a7.79,7.79,0,0,0,7.78-7.78c0-19.58-21.52-31.66-38.19-21.53A2,2,0,0,1,44.11,12,25.09,25.09,0,0,0,35.25,31.17Z" class="colorffdab9 svgShape"></path><path fill="#ffffff" d="M60.19,11a2.5,2.5,0,0,1-.11-5,25.16,25.16,0,0,1,22,12.41,2.51,2.51,0,0,1-1,3.5,2.47,2.47,0,0,1-3.3-.88A20.18,20.18,0,0,0,60.19,11Z" class="colorfff svgShape"></path><path fill="#dc4e67" d="M27.32,40A10.87,10.87,0,0,0,30.63,44h5.24a8.76,8.76,0,0,1-6.76-4.83,1,1,0,0,0-1.79.89Z" class="colordc4e67 svgShape"></path><path fill="#f08080" d="M36.29,9.49a1,1,0,0,0,1.41,0A30.81,30.81,0,0,1,56.75,1H47.54A32.81,32.81,0,0,0,36.31,8.08,1,1,0,0,0,36.29,9.49Z" class="colorf08080 svgShape"></path><path fill="#f8ad9d" d="M5.42,80a15,15,0,0,0,15,15H75.62a15,15,0,0,0,15-15,8.75,8.75,0,0,0-8.75-8.75H14.17A8.75,8.75,0,0,0,5.42,80Z" class="colorf8ad9d svgShape"></path><path fill="#f08080" d="M5.42,80a15,15,0,0,0,15,15H30.52a15,15,0,0,1-15-15,8.75,8.75,0,0,1,8.75-8.75H14.17A8.75,8.75,0,0,0,5.42,80Z" class="colorf08080 svgShape"></path><path fill="#ffdab9" d="M35.39,79a7.83,7.83,0,0,0,.26,3.92,1.49,1.49,0,0,0,1.29,1,1.88,1.88,0,0,1,1.55,2.32A1.48,1.48,0,0,0,39,87.79c1.84,1.49,2.77,1.24,3,2.25a1.18,1.18,0,0,0,2,.46A1.36,1.36,0,0,1,45,90c1.24,0,5,0,19.1,0a1.71,1.71,0,0,1,1.5.77,1.53,1.53,0,0,0,2.64,0,1.71,1.71,0,0,1,1.5-.77h5.86a10,10,0,0,0,10-10.12,3.72,3.72,0,0,0-3.75-3.6c-46.17,0-43.11-.07-43.87.14a1.14,1.14,0,0,1-.84-.18A1.38,1.38,0,0,0,35,77.38C35,78.11,35.55,78.37,35.39,79Z" class="colorffdab9 svgShape"></path><path fill="#f08080" d="M29 92.58A16.09 16.09 0 0032.19 95h6.22a14.13 14.13 0 01-8.08-3.86A1 1 0 1029 92.58zM25.25 76.22a1 1 0 001.31-.52 7.47 7.47 0 015.5-4.42h-4.6a9.19 9.19 0 00-2.74 3.63A1 1 0 0025.25 76.22z" class="colorf08080 svgShape"></path><path fill="#ffd166" d="M87.75,59.36a2.69,2.69,0,0,1-2.59,3.35H80.42a4,4,0,0,0-2.82,1.17L67.54,73.94a3.48,3.48,0,0,1-4.92,0L52.56,63.88a4,4,0,0,0-2.81-1.17H10.84a2.68,2.68,0,0,1,0-5.35H85A2.77,2.77,0,0,1,87.75,59.36Z" class="colorffd166 svgShape"></path><path fill="#ff954d" d="M87.77 59.45A2.77 2.77 0 0085 57.35a2.45 2.45 0 00-2.45 2.45v.34a2.58 2.58 0 002.58 2.57A2.69 2.69 0 0087.77 59.45zM41.08 57.35H10.84a2.68 2.68 0 000 5.35H41.08a2.68 2.68 0 000-5.36z" class="colorff954d svgShape"></path><path fill="#ff683e" d="M21.08,57.35H10.84a2.68,2.68,0,0,0,0,5.35H21.08a2.68,2.68,0,0,0,0-5.35Z" class="colorff683e svgShape"></path><path fill="#fff48e" d="M57.55,61.35H72.61a.78.78,0,0,1,.55,1.32l-7,7a1.49,1.49,0,0,1-2.12,0l-7-7A.78.78,0,0,1,57.55,61.35Z" class="colorfff48e svgShape"></path><circle cx="32.21" cy="15.17" r="2.38" fill="#f08080" class="colorf08080 svgShape"></circle><circle cx="30.3" cy="25.91" r="1.1" fill="#f08080" class="colorf08080 svgShape"></circle><circle cx="22.59" cy="21.66" r="1.41" fill="#f08080" transform="rotate(-9.22 22.593 21.669)" class="colorf08080 svgShape"></circle><circle cx="24" cy="30.12" r="1.53" fill="#f08080" class="colorf08080 svgShape"></circle><circle cx="12.98" cy="20.72" r=".94" fill="#f8ad9d" class="colorf8ad9d svgShape"></circle><circle cx="10.42" cy="30.12" r="1.62" fill="#f8ad9d" class="colorf8ad9d svgShape"></circle><circle cx="50.96" cy="18.08" r="2.17" fill="#f8ad9d" class="colorf8ad9d svgShape"></circle><circle cx="79.42" cy="32.17" r="2.58" fill="#f8ad9d" class="colorf8ad9d svgShape"></circle><circle cx="72.66" cy="35.6" r=".99" fill="#f8ad9d" class="colorf8ad9d svgShape"></circle><circle cx="45.75" cy="79.94" r="1.87" fill="#f8ad9d" class="colorf8ad9d svgShape"></circle><path fill="#f8ad9d" d="M53.78,86.44a1.1,1.1,0,1,0,1.1-1.1A1.09,1.09,0,0,0,53.78,86.44Z" class="colorf8ad9d svgShape"></path><circle cx="78.75" cy="80.84" r="1.34" fill="#f8ad9d" transform="rotate(-9.22 78.739 80.806)" class="colorf8ad9d svgShape"></circle><circle cx="26.44" cy="85.34" r="2.19" fill="#f08080" class="colorf08080 svgShape"></circle><path fill="#f08080" d="M19.5,78.53a1,1,0,0,0,1.94,0,1,1,0,0,0-1.94,0Z" class="colorf08080 svgShape"></path><circle cx="13.25" cy="85.91" r="1.63" fill="#f8ad9d" class="colorf8ad9d svgShape"></circle><circle cx="10.62" cy="78.53" r=".92" fill="#f8ad9d" class="colorf8ad9d svgShape"></circle><path fill="#ef886f" d="M35.31,69.14H19.62a1.16,1.16,0,0,1,0-2.31H35.31a1.16,1.16,0,1,1,0,2.31Z" class="coloref886f svgShape"></path></svg></g></svg>