<svg id="SvgjsSvg1060" width="256" height="256" xmlns="http://www.w3.org/2000/svg" version="1.1" xmlns:xlink="http://www.w3.org/1999/xlink" xmlns:svgjs="http://svgjs.com/svgjs"><defs id="SvgjsDefs1061"></defs><g id="SvgjsG1062"><svg xmlns="http://www.w3.org/2000/svg" xmlns:xlink="http://www.w3.org/1999/xlink" data-name="01 Home" viewBox="0 0 96 96" width="256" height="256"><defs><linearGradient id="a" x1="29.39" x2="50.61" y1="29.39" y2="50.61" gradientUnits="userSpaceOnUse"><stop offset="0" stop-color="#f1bfa5" class="stopColora5e4f1 svgShape"></stop><stop offset=".25" stop-color="#efbca2" class="stopColora2e1ef svgShape"></stop><stop offset=".46" stop-color="#fdaf87" class="stopColor98d8e9 svgShape"></stop><stop offset=".64" stop-color="#dfa587" class="stopColor87c8df svgShape"></stop><stop offset=".82" stop-color="#d0906f" class="stopColor6fb1d0 svgShape"></stop><stop offset=".98" stop-color="#bd7651" class="stopColor5194bd svgShape"></stop><stop offset="1" stop-color="#bb724d" class="stopColor4d91bb svgShape"></stop></linearGradient><linearGradient id="b" x1="61.74" x2="74.46" y1="61.74" y2="74.46" gradientTransform="rotate(45 68.102 68.099)" xlink:href="#a"></linearGradient><linearGradient id="c" x1="22.33" x2="76.59" y1="22.33" y2="76.59" gradientUnits="userSpaceOnUse"><stop offset="0" stop-color="#666666" class="stopColor666 svgShape"></stop><stop offset="1" stop-color="#333333" class="stopColor333 svgShape"></stop></linearGradient></defs><circle cx="40" cy="40" r="15" fill="url(#a)"></circle><path fill="url(#b)" d="M63.1 59.1h10v18h-10z" transform="rotate(-45 68.099 68.102)"></path><path fill="url(#c)" d="m65.27 54-3.53 3.53-2.08-2.07C72.48 39.1 60.83 15 40 15a25 25 0 0 0-25 25c0 20.83 24.11 32.48 40.42 19.66l2.07 2.08L54 65.27l17 17 11.24-11.34ZM40 59a19 19 0 1 1 19-19 19 19 0 0 1-19 19Z"></path></svg></g></svg>