<svg id="SvgjsSvg1099" width="" height="" xmlns="http://www.w3.org/2000/svg" version="1.1" xmlns:xlink="http://www.w3.org/1999/xlink" xmlns:svgjs="http://svgjs.com/svgjs"><defs id="SvgjsDefs1100"></defs><g id="SvgjsG1101"><svg xmlns="http://www.w3.org/2000/svg" xmlns:xlink="http://www.w3.org/1999/xlink" data-name="01 Home" viewBox="0 0 96 96" width="" height=""><defs><linearGradient id="a" x1="32.76" x2="63.24" y1="59.29" y2="89.76" gradientUnits="userSpaceOnUse"><stop offset="0" stop-color="#f1bfa5" class="stopColora5e4f1 svgShape"></stop><stop offset=".25" stop-color="#efbca2" class="stopColora2e1ef svgShape"></stop><stop offset=".46" stop-color="#fdaf87" class="stopColor98d8e9 svgShape"></stop><stop offset=".64" stop-color="#dfa587" class="stopColor87c8df svgShape"></stop><stop offset=".82" stop-color="#d0906f" class="stopColor6fb1d0 svgShape"></stop><stop offset=".98" stop-color="#bd7651" class="stopColor5194bd svgShape"></stop><stop offset="1" stop-color="#bb724d" class="stopColor4d91bb svgShape"></stop></linearGradient><linearGradient id="b" x1="38.1" x2="57.9" y1="22.1" y2="41.9" xlink:href="#a"></linearGradient><linearGradient id="c" x1="22.99" x2="73.01" y1="32.98" y2="82.99" gradientUnits="userSpaceOnUse"><stop offset="0" stop-color="#666666" class="stopColor666 svgShape"></stop><stop offset="1" stop-color="#333333" class="stopColor333 svgShape"></stop></linearGradient></defs><path fill="url(#a)" d="M48 54a24 24 0 0 0-24 24v3h48v-3a24 24 0 0 0-24-24Z"></path><circle cx="48" cy="32" r="14" fill="url(#b)"></circle><path fill="url(#c)" d="M75 78v3h-6v-3a21 21 0 0 0-42 0v3h-6v-3a27 27 0 0 1 54 0ZM31 32a17 17 0 1 1 17 17 17 17 0 0 1-17-17Zm6 0a11 11 0 1 0 11-11 11 11 0 0 0-11 11Z"></path></svg></g></svg>